<?xml version="1.0" encoding="UTF-8" standalone="no"?>
<!-- Created with Inkscape (http://www.inkscape.org/) -->

<svg
   width="276.24576mm"
   height="66.556625mm"
   viewBox="0 0 276.24576 66.556627"
   version="1.1"
   id="svg5"
   xml:space="preserve"
   inkscape:version="1.2.2 (732a01da63, 2022-12-09)"
   sodipodi:docname="skeleton.svg"
   xmlns:inkscape="http://www.inkscape.org/namespaces/inkscape"
   xmlns:sodipodi="http://sodipodi.sourceforge.net/DTD/sodipodi-0.dtd"
   xmlns="http://www.w3.org/2000/svg"
   xmlns:svg="http://www.w3.org/2000/svg"><sodipodi:namedview
     id="namedview7"
     pagecolor="#505050"
     bordercolor="#eeeeee"
     borderopacity="1"
     inkscape:showpageshadow="0"
     inkscape:pageopacity="0"
     inkscape:pagecheckerboard="0"
     inkscape:deskcolor="#505050"
     inkscape:document-units="mm"
     showgrid="false"
     inkscape:zoom="0.73940798"
     inkscape:cx="1707.4471"
     inkscape:cy="296.85911"
     inkscape:window-width="1920"
     inkscape:window-height="991"
     inkscape:window-x="-9"
     inkscape:window-y="-9"
     inkscape:window-maximized="1"
     inkscape:current-layer="svg5" /><defs
     id="defs2" /><rect
     style="fill:#ffffff;fill-opacity:1;stroke:none;stroke-width:2.1522;stroke-dasharray:none"
     id="rect31111"
     width="276.24576"
     height="66.556625"
     x="0"
     y="-1.4210855e-14" /><g
     id="g30104"
     transform="matrix(0.35277776,0,0,0.35277778,95.783115,1.5874337e-6)"><g
       id="g30106"><path
         d="M 13.984,23.664 V 90.852"
         style="fill:none;stroke:#000000;stroke-width:2.7069;stroke-linecap:butt;stroke-linejoin:miter;stroke-miterlimit:4;stroke-dasharray:none;stroke-opacity:1"
         id="path30108" /></g><g
       id="g30110"><path
         d="m 12.582,52.414 h 30.43"
         style="fill:none;stroke:#000000;stroke-width:3.40158;stroke-linecap:butt;stroke-linejoin:miter;stroke-miterlimit:4;stroke-dasharray:none;stroke-opacity:1"
         id="path30112" /></g><path
       d="m 45.277,52.414 -6.804,6.805 h -4.535 l 6.804,-6.805 -6.804,-6.801 h 4.535 z"
       style="fill:#000000;fill-opacity:1;fill-rule:evenodd;stroke:none"
       id="path30114" /><g
       id="g30116"><path
         d="m 12.625,89.176 h 30.43"
         style="fill:none;stroke:#000000;stroke-width:3.40158;stroke-linecap:butt;stroke-linejoin:miter;stroke-miterlimit:4;stroke-dasharray:none;stroke-opacity:1"
         id="path30118" /></g><path
       d="m 45.324,89.176 -6.804,6.801 h -4.536 l 6.805,-6.801 -6.805,-6.805 h 4.536 z"
       style="fill:#000000;fill-opacity:1;fill-rule:evenodd;stroke:none"
       id="path30120" /><path
       d="M 27,3 H 13.5 l -3,-3 H 3 C 1.352,0 0,1.352 0,3 V 9 H 30 V 6 C 30,4.352 28.648,3 27,3 Z"
       style="fill:#ffa000;fill-opacity:1;fill-rule:nonzero;stroke:none"
       id="path30122" /><path
       d="M 27,3 H 3 C 1.352,3 0,4.352 0,6 v 15 c 0,1.648 1.352,3 3,3 h 24 c 1.648,0 3,-1.352 3,-3 V 6 C 30,4.352 28.648,3 27,3 Z"
       style="fill:#ffca28;fill-opacity:1;fill-rule:nonzero;stroke:none"
       id="path30124" /><text
       xml:space="preserve"
       transform="translate(29.781611,20.544176)"
       style="font-variant:normal;font-weight:normal;font-size:20px;font-family:'CMU Serif';-inkscape-font-specification:CMUSerif-Roman;writing-mode:lr-tb;fill:#ffa000;fill-opacity:1;fill-rule:nonzero;stroke:none"
       id="text30128"><tspan
         x="0 10.000007 17.880013 25.700016"
         y="0"
         sodipodi:role="line"
         id="tspan30126">\src</tspan></text><text
       xml:space="preserve"
       transform="translate(45.742386,56.564648)"
       style="font-variant:normal;font-weight:normal;font-size:15px;font-family:'CMU Serif';-inkscape-font-specification:CMUSerif-Roman;writing-mode:lr-tb;fill:#000000;fill-opacity:1;fill-rule:nonzero;stroke:none"
       id="text30138"><tspan
         x="0 11.250007 18.750011 31.245018 37.905022 47.685028 55.185032 62.685036 69.345039 73.515045 81.420052"
         y="0"
         sodipodi:role="line"
         id="tspan30130">HomePage.py</tspan><tspan
         x="46.498482 53.998486 58.993492 70.2435 78.568504 84.388504 92.713509 99.373512 107.27852 113.09853 117.25352 123.91353 131.41353 137.23354 141.38853 148.88855 157.21355 161.38354 169.28856"
         y="74.066597"
         sodipodi:role="line"
         id="tspan30132">1-Authentication.py</tspan><tspan
         x="46.498482 53.998486 58.993492 68.3685 75.8685 83.368507 91.693512 95.848511 104.17352 111.67352 123.34353 131.66853 139.16853 146.66855 152.57855 156.74855 164.65355"
         y="100.78362"
         sodipodi:role="line"
         id="tspan30134">2-Loading_dgos.py</tspan><tspan
         x="46.498482 53.998486 58.993492 69.823494 78.148499 86.068504 93.568512 99.478516 103.63351 111.95852 119.45853 131.12854 143.62354 150.28354 156.10355 161.96855 166.12355 172.78355 178.69356 182.86357 190.76857"
         y="127.67999"
         sodipodi:role="line"
         id="tspan30136">3-Choosing_metrics.py</tspan></text><g
       id="g30140"><path
         d="m 60.828,98.305 v 30.429"
         style="fill:none;stroke:#000000;stroke-width:3.44999;stroke-linecap:butt;stroke-linejoin:miter;stroke-miterlimit:4;stroke-dasharray:none;stroke-opacity:1"
         id="path30142" /></g><g
       id="g30144"><path
         d="m 59.105,127.023 h 30.43"
         style="fill:none;stroke:#000000;stroke-width:3.44976;stroke-linecap:butt;stroke-linejoin:miter;stroke-miterlimit:4;stroke-dasharray:none;stroke-opacity:1"
         id="path30146" /></g><path
       d="m 91.836,127.023 -6.902,6.899 h -4.598 l 6.898,-6.899 -6.898,-6.898 h 4.598 z"
       style="fill:#000000;fill-opacity:1;fill-rule:evenodd;stroke:none"
       id="path30148" /><g
       id="g30150"><path
         d="m 60.809,125.035 v 30.43"
         style="fill:none;stroke:#000000;stroke-width:3.44999;stroke-linecap:butt;stroke-linejoin:miter;stroke-miterlimit:4;stroke-dasharray:none;stroke-opacity:1"
         id="path30152" /></g><g
       id="g30154"><path
         d="m 59.086,153.754 h 30.43"
         style="fill:none;stroke:#000000;stroke-width:3.44976;stroke-linecap:butt;stroke-linejoin:miter;stroke-miterlimit:4;stroke-dasharray:none;stroke-opacity:1"
         id="path30156" /></g><path
       d="m 91.816,153.754 -6.898,6.898 h -4.602 l 6.903,-6.898 -6.903,-6.899 h 4.602 z"
       style="fill:#000000;fill-opacity:1;fill-rule:evenodd;stroke:none"
       id="path30158" /><g
       id="g30160"><path
         d="m 60.766,151.934 v 30.429"
         style="fill:none;stroke:#000000;stroke-width:3.44999;stroke-linecap:butt;stroke-linejoin:miter;stroke-miterlimit:4;stroke-dasharray:none;stroke-opacity:1"
         id="path30162" /></g><g
       id="g30164"><path
         d="m 59.043,180.652 h 30.43"
         style="fill:none;stroke:#000000;stroke-width:3.44976;stroke-linecap:butt;stroke-linejoin:miter;stroke-miterlimit:4;stroke-dasharray:none;stroke-opacity:1"
         id="path30166" /></g><path
       d="m 91.77,180.652 -6.899,6.899 h -4.598 l 6.899,-6.899 -6.899,-6.898 h 4.598 z"
       style="fill:#000000;fill-opacity:1;fill-rule:evenodd;stroke:none"
       id="path30168" /><path
       d="m 73.844,77.641 h -13.5 l -3,-3 h -7.5 c -1.653,0 -3,1.351 -3,3 v 6 h 30 v -3 c 0,-1.649 -1.352,-3 -3,-3 z"
       style="fill:#ffa000;fill-opacity:1;fill-rule:nonzero;stroke:none"
       id="path30170" /><path
       d="m 73.844,77.641 h -24 c -1.653,0 -3,1.351 -3,3 v 15 c 0,1.648 1.347,3 3,3 h 24 c 1.648,0 3,-1.352 3,-3 v -15 c 0,-1.649 -1.352,-3 -3,-3 z"
       style="fill:#ffca28;fill-opacity:1;fill-rule:nonzero;stroke:none"
       id="path30172" /><text
       xml:space="preserve"
       transform="translate(76.623775,95.184511)"
       style="font-variant:normal;font-weight:normal;font-size:20px;font-family:'CMU Serif';-inkscape-font-specification:CMUSerif-Roman;writing-mode:lr-tb;fill:#ffa000;fill-opacity:1;fill-rule:nonzero;stroke:none"
       id="text30176"><tspan
         x="0 10.000007 21.100014 31.100019 41.100025 49.980034"
         y="0"
         sodipodi:role="line"
         id="tspan30174">\pages</tspan></text></g></svg>
